<svg width="47" height="48" viewBox="0 0 47 48" fill="none" xmlns="http://www.w3.org/2000/svg">
<path d="M34.6874 0H12.1921C5.49503 0 0 5.44153 0 12.2005V35.7995C0 42.5012 5.43779 48 12.1921 48H34.7446C41.4417 48 46.9367 42.5585 46.9367 35.7995V12.1432C46.8795 5.44153 41.4417 0 34.6874 0ZM38.7514 39.8664H29.9365C29.8792 39.8664 29.822 39.8663 29.822 39.8091L21.5794 27.8377H21.5222C18.2023 31.6754 14.9396 35.4558 11.7342 39.179C11.5625 39.4081 11.3335 39.58 11.1618 39.7518C11.1045 39.8091 11.0473 39.8091 10.9901 39.8091H8.58599C8.52875 39.8091 8.47151 39.8091 8.52875 39.7518L20.2629 26.1193C20.3202 26.0621 20.3202 26.0048 20.2629 25.9475L8.58599 8.93556V8.87828H17.4582C17.5154 8.87828 17.5154 8.87828 17.5727 8.93556L25.3573 20.2196C25.3573 20.2196 25.3573 20.2196 25.4145 20.2196L35.0881 8.93556C35.1453 8.87828 35.2025 8.87828 35.2598 8.87828H37.6639C37.7783 8.87828 37.7783 8.93556 37.7211 8.99284L26.6166 21.8807C26.5593 21.9379 26.5593 21.9952 26.6166 22.0525L38.8087 39.8091C38.8087 39.8091 38.8087 39.8664 38.7514 39.8664Z" fill="black"/>
<path d="M16.4278 10.4603H12.5928C12.5355 10.4603 12.5355 10.5176 12.5355 10.5749L30.9668 37.3243C30.9668 37.3243 30.9668 37.3243 31.024 37.3243H34.8018C34.8591 37.3243 34.8591 37.267 34.8591 37.2097L16.4278 10.4603Z" fill="black"/>
</svg>
