<svg width="435" height="48" viewBox="0 0 435 48" fill="none" xmlns="http://www.w3.org/2000/svg">
<path d="M24 0C17.487 0 16.668 0.03 14.109 0.144C11.55 0.264 9.807 0.666 8.28 1.26C6.67753 1.86098 5.22642 2.8062 4.029 4.029C2.8062 5.22642 1.86098 6.67753 1.26 8.28C0.666 9.804 0.261 11.55 0.144 14.1C0.03 16.665 0 17.481 0 24.003C0 30.519 0.03 31.335 0.144 33.894C0.264 36.45 0.666 38.193 1.26 39.72C1.875 41.298 2.694 42.636 4.029 43.971C5.361 45.306 6.699 46.128 8.277 46.74C9.807 47.334 11.547 47.739 14.103 47.856C16.665 47.97 17.481 48 24 48C30.519 48 31.332 47.97 33.894 47.856C36.447 47.736 38.196 47.334 39.723 46.74C41.3244 46.1386 42.7744 45.1934 43.971 43.971C45.306 42.636 46.125 41.298 46.74 39.72C47.331 38.193 47.736 36.45 47.856 33.894C47.97 31.335 48 30.519 48 24C48 17.481 47.97 16.665 47.856 14.103C47.736 11.55 47.331 9.804 46.74 8.28C46.139 6.67753 45.1938 5.22642 43.971 4.029C42.7736 2.8062 41.3225 1.86098 39.72 1.26C38.19 0.666 36.444 0.261 33.891 0.144C31.329 0.03 30.516 0 23.994 0H24ZM21.849 4.326H24.003C30.411 4.326 31.17 4.347 33.699 4.464C36.039 4.569 37.311 4.962 38.157 5.289C39.276 5.724 40.077 6.246 40.917 7.086C41.757 7.926 42.276 8.724 42.711 9.846C43.041 10.689 43.431 11.961 43.536 14.301C43.653 16.83 43.677 17.589 43.677 23.994C43.677 30.399 43.653 31.161 43.536 33.69C43.431 36.03 43.038 37.299 42.711 38.145C42.3235 39.1857 41.7097 40.1274 40.914 40.902C40.074 41.742 39.276 42.261 38.154 42.696C37.314 43.026 36.042 43.416 33.699 43.524C31.17 43.638 30.411 43.665 24.003 43.665C17.595 43.665 16.833 43.638 14.304 43.524C11.964 43.416 10.695 43.026 9.849 42.696C8.8075 42.3098 7.86479 41.697 7.089 40.902C6.29182 40.1268 5.67698 39.1841 5.289 38.142C4.962 37.299 4.569 36.027 4.464 33.687C4.35 31.158 4.326 30.399 4.326 23.988C4.326 17.577 4.35 16.824 4.464 14.295C4.572 11.955 4.962 10.683 5.292 9.837C5.727 8.718 6.249 7.917 7.089 7.077C7.929 6.237 8.727 5.718 9.849 5.283C10.695 4.953 11.964 4.563 14.304 4.455C16.518 4.353 17.376 4.323 21.849 4.32V4.326ZM36.813 8.31C36.4348 8.31 36.0603 8.38449 35.7109 8.52923C35.3615 8.67396 35.044 8.8861 34.7765 9.15353C34.5091 9.42097 34.297 9.73845 34.1522 10.0879C34.0075 10.4373 33.933 10.8118 33.933 11.19C33.933 11.5682 34.0075 11.9427 34.1522 12.2921C34.297 12.6415 34.5091 12.959 34.7765 13.2265C35.044 13.4939 35.3615 13.706 35.7109 13.8508C36.0603 13.9955 36.4348 14.07 36.813 14.07C37.5768 14.07 38.3094 13.7666 38.8495 13.2265C39.3896 12.6864 39.693 11.9538 39.693 11.19C39.693 10.4262 39.3896 9.69364 38.8495 9.15353C38.3094 8.61343 37.5768 8.31 36.813 8.31ZM24.003 11.676C22.3682 11.6505 20.7447 11.9505 19.2269 12.5584C17.7092 13.1664 16.3275 14.0702 15.1625 15.2173C13.9974 16.3643 13.0721 17.7317 12.4405 19.2398C11.809 20.7479 11.4837 22.3665 11.4837 24.0015C11.4837 25.6365 11.809 27.2551 12.4405 28.7632C13.0721 30.2713 13.9974 31.6387 15.1625 32.7857C16.3275 33.9328 17.7092 34.8366 19.2269 35.4446C20.7447 36.0525 22.3682 36.3525 24.003 36.327C27.2386 36.2765 30.3246 34.9557 32.5949 32.6498C34.8652 30.3438 36.1377 27.2375 36.1377 24.0015C36.1377 20.7655 34.8652 17.6592 32.5949 15.3532C30.3246 13.0473 27.2386 11.7265 24.003 11.676ZM24.003 15.999C25.0537 15.999 26.0941 16.206 27.0649 16.608C28.0356 17.0101 28.9176 17.5995 29.6606 18.3424C30.4035 19.0854 30.9929 19.9674 31.395 20.9382C31.797 21.9089 32.004 22.9493 32.004 24C32.004 25.0507 31.797 26.0911 31.395 27.0618C30.9929 28.0326 30.4035 28.9146 29.6606 29.6576C28.9176 30.4005 28.0356 30.9899 27.0649 31.392C26.0941 31.794 25.0537 32.001 24.003 32.001C21.881 32.001 19.8459 31.158 18.3454 29.6576C16.845 28.1571 16.002 26.122 16.002 24C16.002 21.878 16.845 19.8429 18.3454 18.3424C19.8459 16.842 21.881 15.999 24.003 15.999Z" fill="black"/>
<path d="M145 24.146C145 10.8073 134.258 0 121 0C107.742 0 97 10.8073 97 24.146C97 36.1976 105.776 46.1871 117.25 48V31.126H111.153V24.146H117.25V18.8261C117.25 12.775 120.831 9.43253 126.315 9.43253C128.941 9.43253 131.688 9.90377 131.688 9.90377V15.8429H128.661C125.68 15.8429 124.75 17.7045 124.75 19.6138V24.146H131.406L130.342 31.126H124.75V48C136.224 46.1871 145 36.1976 145 24.146Z" fill="black"/>
<path d="M234.987 6.97814C232.777 4.75664 230.145 2.99549 227.244 1.79744C224.343 0.599389 221.231 -0.0115824 218.09 0.000166275C204.93 0.000166275 194.205 10.6741 194.193 23.7781C194.193 27.9751 195.296 32.0581 197.378 35.673L194 48L206.669 44.694C210.172 46.5967 214.1 47.5922 218.09 47.589H218.102C231.266 47.589 241.988 36.915 242 23.7991C242.003 20.6733 241.384 17.5778 240.18 14.6909C238.976 11.8041 237.213 9.18283 234.987 6.97814ZM218.09 43.563C214.532 43.5602 211.039 42.6071 207.977 40.803L207.254 40.371L199.738 42.333L201.745 35.034L201.275 34.281C199.285 31.132 198.233 27.4862 198.24 23.7661C198.24 12.8881 207.151 4.01415 218.102 4.01415C220.711 4.00949 223.296 4.51897 225.706 5.51322C228.116 6.50747 230.305 7.96682 232.146 9.80713C233.993 11.6406 235.457 13.8197 236.454 16.2191C237.451 18.6184 237.962 21.1905 237.956 23.7871C237.944 34.704 229.033 43.563 218.09 43.563ZM228.984 28.7611C228.391 28.4641 225.459 27.0271 224.907 26.8231C224.359 26.6281 223.958 26.5261 223.566 27.1201C223.165 27.7111 222.02 29.0581 221.677 29.4451C221.333 29.8441 220.977 29.8891 220.381 29.5951C219.787 29.2951 217.861 28.6711 215.583 26.6401C213.805 25.0651 212.615 23.1151 212.259 22.5241C211.916 21.9301 212.226 21.6121 212.524 21.3151C212.787 21.0511 213.118 20.6191 213.416 20.2771C213.718 19.9351 213.817 19.6831 214.013 19.2871C214.209 18.8851 214.116 18.5431 213.968 18.2461C213.817 17.9491 212.627 15.0181 212.124 13.8361C211.641 12.6691 211.15 12.8311 210.783 12.8161C210.439 12.7951 210.038 12.7951 209.637 12.7951C209.335 12.8028 209.037 12.8726 208.763 13.0001C208.488 13.1276 208.243 13.3101 208.043 13.5361C207.495 14.1301 205.961 15.5671 205.961 18.4981C205.961 21.4291 208.1 24.2461 208.402 24.6451C208.697 25.0441 212.603 31.0411 218.597 33.6211C220.013 34.236 221.128 34.599 221.999 34.875C223.43 35.331 224.723 35.262 225.754 35.115C226.899 34.941 229.283 33.6751 229.786 32.2861C230.28 30.8941 230.28 29.7061 230.13 29.4571C229.982 29.2051 229.581 29.0581 228.984 28.7611Z" fill="black"/>
<path d="M325.687 0H303.192C296.495 0 291 5.44153 291 12.2005V35.7995C291 42.5012 296.438 48 303.192 48H325.745C332.442 48 337.937 42.5585 337.937 35.7995V12.1432C337.879 5.44153 332.442 0 325.687 0ZM329.751 39.8664H320.936C320.879 39.8664 320.822 39.8663 320.822 39.8091L312.579 27.8377H312.522C309.202 31.6754 305.94 35.4558 302.734 39.179C302.562 39.4081 302.334 39.58 302.162 39.7518C302.105 39.8091 302.047 39.8091 301.99 39.8091H299.586C299.529 39.8091 299.472 39.8091 299.529 39.7518L311.263 26.1193C311.32 26.0621 311.32 26.0048 311.263 25.9475L299.586 8.93556V8.87828H308.458C308.515 8.87828 308.515 8.87828 308.573 8.93556L316.357 20.2196C316.357 20.2196 316.357 20.2196 316.415 20.2196L326.088 8.93556C326.145 8.87828 326.203 8.87828 326.26 8.87828H328.664C328.778 8.87828 328.778 8.93556 328.721 8.99284L317.617 21.8807C317.559 21.9379 317.559 21.9952 317.617 22.0525L329.809 39.8091C329.809 39.8091 329.809 39.8664 329.751 39.8664Z" fill="black"/>
<path d="M307.428 10.4603H303.593C303.536 10.4603 303.536 10.5176 303.536 10.5749L321.967 37.3243C321.967 37.3243 321.967 37.3243 322.024 37.3243H325.802C325.859 37.3243 325.859 37.267 325.859 37.2097L307.428 10.4603Z" fill="black"/>
<path d="M421.794 0H400.08C392.821 0 386.937 5.88434 386.937 13.143V34.857C386.937 42.1157 392.821 48 400.08 48H421.794C429.052 48 434.937 42.1157 434.937 34.857V13.143C434.937 5.88434 429.052 0 421.794 0Z" fill="url(#paint0_radial_6_20)"/>
<path d="M408.961 24.93C408.321 24.9138 407.681 24.9501 407.047 25.0384C406.127 25.2454 405.32 25.7947 404.79 26.5748C404.261 27.3549 404.048 28.3073 404.195 29.2386C404.333 30.1796 404.824 31.0328 405.568 31.6256C406.312 32.2184 407.253 32.5064 408.201 32.4314C409.135 32.3669 410.011 31.9517 410.652 31.2691C411.293 30.5865 411.652 29.6868 411.657 28.7504C411.657 23.0468 411.657 17.351 411.657 11.6474V11.043H416.098C416.377 14.8169 418.593 16.7388 422.22 17.2425V21.59C420.048 21.563 417.937 20.8735 416.168 19.6138C416.168 19.8153 416.168 19.9626 416.168 20.1098C416.168 22.9074 416.168 25.6971 416.168 28.4869C416.226 30.217 415.729 31.9203 414.751 33.348C413.772 34.7757 412.362 35.853 410.727 36.4224C409.241 37.0309 407.602 37.1623 406.037 36.7986C404.473 36.4349 403.06 35.5939 401.994 34.392C400.851 33.2865 400.076 31.8563 399.774 30.2953C399.472 28.7344 399.657 27.1183 400.304 25.6662C400.961 23.9915 402.153 22.5811 403.695 21.6546C405.237 20.7281 407.042 20.3375 408.829 20.5438L408.992 20.5825L408.961 24.93Z" fill="url(#paint1_linear_6_20)"/>
<defs>
<radialGradient id="paint0_radial_6_20" cx="0" cy="0" r="1" gradientUnits="userSpaceOnUse" gradientTransform="translate(413.928 -21.5202) scale(42.3662)">
<stop stop-color="#1F1F1F"/>
<stop offset="0.44" stop-color="#232222"/>
<stop offset="0.82" stop-color="#2D2B2B"/>
<stop offset="1" stop-color="#353132"/>
</radialGradient>
<linearGradient id="paint1_linear_6_20" x1="410.937" y1="36.9571" x2="410.937" y2="11.043" gradientUnits="userSpaceOnUse">
<stop stop-color="#D1D3D4"/>
<stop offset="0.15" stop-color="#DEE0E1"/>
<stop offset="0.41" stop-color="#F1F1F2"/>
<stop offset="0.69" stop-color="#FBFCFC"/>
<stop offset="1" stop-color="white"/>
</linearGradient>
</defs>
</svg>
