<svg width="49" height="48" viewBox="0 0 49 48" fill="none" xmlns="http://www.w3.org/2000/svg">
<path d="M35.7937 0H14.0797C6.82105 0 0.936707 5.88434 0.936707 13.143V34.857C0.936707 42.1157 6.82105 48 14.0797 48H35.7937C43.0524 48 48.9367 42.1157 48.9367 34.857V13.143C48.9367 5.88434 43.0524 0 35.7937 0Z" fill="url(#paint0_radial_6_30)"/>
<path d="M22.9606 24.93C22.3207 24.9138 21.6805 24.9501 21.0465 25.0384C20.1266 25.2454 19.3199 25.7947 18.7903 26.5748C18.2606 27.3549 18.0477 28.3073 18.1947 29.2386C18.3332 30.1796 18.8241 31.0328 19.5679 31.6256C20.3117 32.2184 21.253 32.5064 22.2012 32.4314C23.1353 32.3669 24.0106 31.9517 24.6516 31.2691C25.2925 30.5865 25.6518 29.6868 25.6574 28.7504C25.6574 23.0468 25.6574 17.351 25.6574 11.6474V11.043H30.0978C30.3768 14.8169 32.5932 16.7388 36.2199 17.2425V21.59C34.0483 21.563 31.9367 20.8735 30.1676 19.6138C30.1676 19.8153 30.1676 19.9626 30.1676 20.1098C30.1676 22.9074 30.1676 25.6971 30.1676 28.4869C30.2259 30.217 29.7294 31.9203 28.7506 33.348C27.7719 34.7757 26.3621 35.853 24.7275 36.4224C23.2408 37.0309 21.6018 37.1623 20.0372 36.7986C18.4726 36.4349 17.0596 35.5939 15.9939 34.392C14.8512 33.2865 14.0761 31.8563 13.7739 30.2953C13.4717 28.7344 13.6569 27.1183 14.3045 25.6662C14.9612 23.9915 16.1533 22.5811 17.6951 21.6546C19.237 20.7281 21.0419 20.3375 22.8289 20.5438L22.9916 20.5825L22.9606 24.93Z" fill="url(#paint1_linear_6_30)"/>
<defs>
<radialGradient id="paint0_radial_6_30" cx="0" cy="0" r="1" gradientUnits="userSpaceOnUse" gradientTransform="translate(27.928 -21.5202) scale(42.3662)">
<stop stop-color="#1F1F1F"/>
<stop offset="0.44" stop-color="#232222"/>
<stop offset="0.82" stop-color="#2D2B2B"/>
<stop offset="1" stop-color="#353132"/>
</radialGradient>
<linearGradient id="paint1_linear_6_30" x1="24.9367" y1="36.9571" x2="24.9367" y2="11.043" gradientUnits="userSpaceOnUse">
<stop stop-color="#D1D3D4"/>
<stop offset="0.15" stop-color="#DEE0E1"/>
<stop offset="0.41" stop-color="#F1F1F2"/>
<stop offset="0.69" stop-color="#FBFCFC"/>
<stop offset="1" stop-color="white"/>
</linearGradient>
</defs>
</svg>
