<svg width="48" height="48" viewBox="0 0 48 48" fill="none" xmlns="http://www.w3.org/2000/svg">
<path d="M40.9874 6.97814C38.7773 4.75664 36.1449 2.99549 33.2439 1.79744C30.3428 0.599389 27.2312 -0.0115824 24.0904 0.000166275C10.9302 0.000166275 0.204922 10.6741 0.192868 23.7781C0.192868 27.9751 1.29583 32.0581 3.3782 35.673L0 48L12.669 44.694C16.1722 46.5967 20.0997 47.5922 24.0904 47.589H24.1025C37.2657 47.589 47.9879 36.915 48 23.7991C48.0027 20.6733 47.3842 17.5778 46.1802 14.6909C44.9761 11.8041 43.2133 9.18283 40.9874 6.97814ZM24.0904 43.563C20.5319 43.5602 17.0393 42.6071 13.9769 40.803L13.2536 40.371L5.73782 42.333L7.74485 35.034L7.27474 34.281C5.2852 31.132 4.23299 27.4862 4.24008 23.7661C4.24008 12.8881 13.1512 4.01415 24.1025 4.01415C26.7114 4.00949 29.2955 4.51897 31.7057 5.51322C34.116 6.50747 36.3047 7.96682 38.1457 9.80713C39.9927 11.6406 41.4569 13.8197 42.4541 16.2191C43.4513 18.6184 43.9617 21.1905 43.9558 23.7871C43.9437 34.704 35.0326 43.563 24.0904 43.563ZM34.9844 28.7611C34.3908 28.4641 31.4586 27.0271 30.9071 26.8231C30.3586 26.6281 29.9578 26.5261 29.566 27.1201C29.1652 27.7111 28.0201 29.0581 27.6765 29.4451C27.333 29.8441 26.9774 29.8891 26.3807 29.5951C25.787 29.2951 23.8614 28.6711 21.5831 26.6401C19.8051 25.0651 18.6148 23.1151 18.2592 22.5241C17.9156 21.9301 18.226 21.6121 18.5244 21.3151C18.7865 21.0511 19.118 20.6191 19.4164 20.2771C19.7177 19.9351 19.8172 19.6831 20.0131 19.2871C20.2089 18.8851 20.1155 18.5431 19.9679 18.2461C19.8172 17.9491 18.6268 15.0181 18.1236 13.8361C17.6414 12.6691 17.1502 12.8311 16.7825 12.8161C16.439 12.7951 16.0382 12.7951 15.6374 12.7951C15.3347 12.8028 15.0369 12.8726 14.7626 13.0001C14.4883 13.1276 14.2434 13.3101 14.0432 13.5361C13.4947 14.1301 11.9608 15.5671 11.9608 18.4981C11.9608 21.4291 14.1004 24.2461 14.4018 24.6451C14.6971 25.0441 18.6027 31.0411 24.5967 33.6211C26.0131 34.236 27.1281 34.599 27.999 34.875C29.4304 35.331 30.7232 35.262 31.7539 35.115C32.899 34.941 35.2828 33.6751 35.786 32.2861C36.2803 30.8941 36.2803 29.7061 36.1296 29.4571C35.9819 29.2051 35.5811 29.0581 34.9844 28.7611Z" fill="black"/>
</svg>
