<svg width="184" height="131" viewBox="0 0 184 131" fill="none" xmlns="http://www.w3.org/2000/svg">
<rect x="10" y="10" width="164" height="110.25" rx="10" fill="url(#paint0_linear_7_60)"/>
<rect width="129" height="59" transform="translate(27.5 10)" fill="#B41A1A"/>
<path d="M44.892 52H41.532C40.8067 52 40.3267 51.8827 40.092 51.648C39.8787 51.4133 39.772 50.9227 39.772 50.176V30.144C39.772 29.76 39.8787 29.4507 40.092 29.216C40.3053 28.9813 40.5827 28.864 40.924 28.864H44.892V52ZM46.172 28.864H50.236C51.4733 28.864 52.444 28.96 53.148 29.152C53.8733 29.344 54.4173 29.728 54.78 30.304C55.1427 30.8587 55.3667 31.488 55.452 32.192C55.5587 32.8747 55.612 33.8453 55.612 35.104C55.612 36.3627 55.5587 37.3227 55.452 37.984C55.3667 38.6453 55.1427 39.264 54.78 39.84C54.4387 40.416 53.8947 40.8213 53.148 41.056C52.4227 41.2907 51.452 41.408 50.236 41.408H46.172V38.368H48.54C49.0947 38.368 49.4467 38.2933 49.596 38.144C49.7667 37.9947 49.852 37.76 49.852 37.44V32.864C49.852 32.5227 49.7667 32.2773 49.596 32.128C49.4467 31.9787 49.0947 31.904 48.54 31.904H46.172V28.864ZM49.244 42.4H53.212C53.852 42.4 54.3107 42.5813 54.588 42.944C54.8653 43.2853 55.004 43.8507 55.004 44.64V52H50.396C50.0547 52 49.7773 51.8827 49.564 51.648C49.3507 51.4133 49.244 51.104 49.244 50.72V42.4ZM59.1045 36H62.7525C63.0938 36 63.3712 36.1173 63.5845 36.352C63.7978 36.5867 63.9045 36.896 63.9045 37.28V48.64C63.9045 48.9813 63.9792 49.2267 64.1285 49.376C64.2992 49.5253 64.6618 49.6 65.2165 49.6H67.0725V52H62.5925C60.2672 52 59.1045 50.8587 59.1045 48.576V36ZM74.1125 51.776C74.1125 51.9253 74.0592 52 73.9525 52H70.7205C69.7818 52 69.0672 51.776 68.5765 51.328C68.1072 50.8587 67.8725 50.2613 67.8725 49.536V36H71.5205C71.8618 36 72.1392 36.1173 72.3525 36.352C72.5658 36.5867 72.6725 36.896 72.6725 37.28V48.384C72.6725 49.0453 72.8112 49.4187 73.0885 49.504C73.2378 49.568 73.4405 49.6 73.6965 49.6H73.8565C74.0272 49.6 74.1125 49.6747 74.1125 49.824V51.776ZM82.2998 36H86.7798C89.1051 36 90.2678 37.1413 90.2678 39.424V52H86.6198C86.2784 52 86.0011 51.8827 85.7878 51.648C85.5744 51.4133 85.4678 51.104 85.4678 50.72V39.36C85.4678 39.0187 85.3824 38.7733 85.2118 38.624C85.0624 38.4747 84.7104 38.4 84.1558 38.4H82.2998V36ZM76.6998 36H78.6518C79.5904 36 80.2944 36.2347 80.7638 36.704C81.2544 37.152 81.4998 37.7387 81.4998 38.464V52H77.8518C77.5104 52 77.2331 51.8827 77.0198 51.648C76.8064 51.4133 76.6998 51.104 76.6998 50.72V36ZM106.432 52H106.048C105.195 52 104.48 51.936 103.904 51.808C103.35 51.68 102.859 51.424 102.432 51.04C102.027 50.6347 101.707 50.1867 101.472 49.696C101.259 49.2053 101.088 48.4693 100.96 47.488C100.768 46.016 100.672 44.0427 100.672 41.568C100.672 39.072 100.683 37.312 100.704 36.288C100.747 35.264 100.832 34.272 100.96 33.312C101.088 32.3307 101.259 31.6053 101.472 31.136C101.707 30.6453 102.027 30.208 102.432 29.824C102.859 29.4187 103.35 29.1627 103.904 29.056C104.48 28.928 105.195 28.864 106.048 28.864H106.432V52ZM107.712 28.864H111.776C113.334 28.864 114.507 29.1307 115.296 29.664C116.107 30.1973 116.512 31.1253 116.512 32.448V35.328C116.512 35.776 116.363 36 116.064 36H112.032C111.734 36 111.552 35.9573 111.488 35.872C111.424 35.7867 111.392 35.6053 111.392 35.328V32.832C111.392 32.4907 111.339 32.256 111.232 32.128C111.147 31.9787 110.912 31.904 110.528 31.904H107.712V28.864ZM112.032 44.864H116.064C116.363 44.864 116.512 45.088 116.512 45.536V48.416C116.512 49.7387 116.107 50.6667 115.296 51.2C114.507 51.7333 113.334 52 111.776 52H107.712V48.96H110.528C110.912 48.96 111.147 48.896 111.232 48.768C111.339 48.6187 111.392 48.3733 111.392 48.032V45.536C111.392 45.2587 111.424 45.0773 111.488 44.992C111.552 44.9067 111.734 44.864 112.032 44.864ZM127.788 38.4H126.06C125.399 38.4 125.026 38.5173 124.94 38.752C124.812 39.0293 124.748 39.424 124.748 39.936V48.064C124.748 48.1067 124.748 48.2347 124.748 48.448C124.748 48.6613 124.77 48.8427 124.812 48.992C124.898 49.3973 125.314 49.6 126.06 49.6H127.788V52H124.684C123.874 52 123.212 51.968 122.7 51.904C122.188 51.8187 121.74 51.648 121.356 51.392C120.972 51.136 120.684 50.8587 120.492 50.56C120.3 50.24 120.14 49.7387 120.012 49.056C119.863 48.096 119.788 46.752 119.788 45.024C119.788 43.296 119.799 42.1333 119.82 41.536C119.842 40.9173 119.874 40.2667 119.916 39.584C119.98 38.9013 120.076 38.4 120.204 38.08C120.354 37.76 120.535 37.44 120.748 37.12C120.983 36.7787 121.282 36.544 121.644 36.416C122.434 36.1387 123.447 36 124.684 36H127.788V38.4ZM134.988 51.776C134.988 51.9253 134.946 52 134.86 52H132.236C131.042 52 130.156 51.7227 129.58 51.168C129.026 50.6133 128.748 49.7067 128.748 48.448V36H130.06C131.404 36 132.322 36.32 132.812 36.96C133.303 37.5787 133.548 38.4 133.548 39.424V48.384C133.548 49.0453 133.687 49.4187 133.964 49.504C134.114 49.568 134.316 49.6 134.572 49.6H134.732C134.903 49.6 134.988 49.6747 134.988 49.824V51.776ZM140.936 36H144.776C144.904 36 144.968 36.0747 144.968 36.224V38.176C144.968 38.3253 144.883 38.4 144.712 38.4H143.272C142.76 38.4 142.462 38.496 142.376 38.688C142.291 38.9653 142.248 39.2747 142.248 39.616V49.536C142.248 50.2613 142.003 50.8587 141.512 51.328C141.043 51.776 140.339 52 139.4 52H137.448V39.552C137.448 38.2933 137.726 37.3867 138.28 36.832C138.856 36.2773 139.742 36 140.936 36Z" fill="white"/>
<path d="M27.696 88H26.016C25.6533 88 25.4133 87.9413 25.296 87.824C25.1893 87.7067 25.136 87.4667 25.136 87.104V77.36C25.136 76.9867 25.1947 76.7413 25.312 76.624C25.4293 76.496 25.664 76.432 26.016 76.432H27.696V88ZM31.68 80.896V81.856C31.68 82.24 31.6427 82.4853 31.568 82.592C31.4933 82.688 31.28 82.736 30.928 82.736H28.336V80.896H31.68ZM32.32 76.432V77.808C32.32 78.1707 32.2613 78.4107 32.144 78.528C32.0267 78.6347 31.7813 78.688 31.408 78.688H28.336V76.432H32.32ZM37.1598 81.2H36.2958C35.9651 81.2 35.7784 81.2587 35.7358 81.376C35.6718 81.5147 35.6398 81.712 35.6398 81.968V86.032C35.6398 86.0533 35.6398 86.1173 35.6398 86.224C35.6398 86.3307 35.6504 86.4213 35.6718 86.496C35.7144 86.6987 35.9224 86.8 36.2958 86.8H37.1598V88H35.6078C35.2024 88 34.8718 87.984 34.6158 87.952C34.3598 87.9093 34.1358 87.824 33.9438 87.696C33.7518 87.568 33.6078 87.4293 33.5118 87.28C33.4158 87.12 33.3358 86.8693 33.2718 86.528C33.1971 86.048 33.1598 85.376 33.1598 84.512C33.1598 83.648 33.1651 83.0667 33.1758 82.768C33.1864 82.4587 33.2024 82.1333 33.2238 81.792C33.2558 81.4507 33.3038 81.2 33.3678 81.04C33.4424 80.88 33.5331 80.72 33.6398 80.56C33.7571 80.3893 33.9064 80.272 34.0878 80.208C34.4824 80.0693 34.9891 80 35.6078 80H37.1598V81.2ZM40.7598 87.888C40.7598 87.9627 40.7384 88 40.6958 88H39.3838C38.7864 88 38.3438 87.8613 38.0558 87.584C37.7784 87.3067 37.6398 86.8533 37.6398 86.224V80H38.2958C38.9678 80 39.4264 80.16 39.6718 80.48C39.9171 80.7893 40.0398 81.2 40.0398 81.712V86.192C40.0398 86.5227 40.1091 86.7093 40.2478 86.752C40.3224 86.784 40.4238 86.8 40.5518 86.8H40.6318C40.7171 86.8 40.7598 86.8373 40.7598 86.912V87.888ZM44.2138 80V82.928C44.2138 83.1093 44.2404 83.2373 44.2938 83.312C44.3471 83.376 44.4858 83.408 44.7098 83.408H45.6058V84.608H43.5578C42.3951 84.608 41.8138 84.0373 41.8138 82.896V81.776C41.8138 81.072 41.9898 80.6027 42.3418 80.368C42.7044 80.1227 43.3284 80 44.2138 80ZM44.2458 85.472V86.32C44.2458 86.5013 44.2724 86.6293 44.3258 86.704C44.3791 86.768 44.5178 86.8 44.7418 86.8H45.6058V88H43.5898C42.4271 88 41.8458 87.4293 41.8458 86.288V85.808C41.8458 85.648 41.8618 85.5573 41.8938 85.536C41.9364 85.5147 41.9631 85.504 41.9738 85.504C41.9844 85.4933 42.0111 85.488 42.0538 85.488C42.1071 85.4773 42.1391 85.472 42.1497 85.472C42.8537 85.472 43.5524 85.472 44.2458 85.472ZM46.0858 83.408H46.7418C47.9044 83.408 48.4858 83.9787 48.4858 85.12V86.224C48.4858 86.928 48.3044 87.4027 47.9418 87.648C47.5898 87.8827 46.9711 88 46.0858 88V83.408ZM44.6938 80H46.7098C47.8724 80 48.4538 80.5707 48.4538 81.712V82.544C47.7391 82.544 47.1951 82.544 46.8218 82.544C46.4484 82.544 46.2564 82.544 46.2458 82.544C46.2351 82.5333 46.2138 82.528 46.1818 82.528C46.1604 82.5173 46.1444 82.5067 46.1338 82.496C46.1231 82.4853 46.1124 82.4747 46.1018 82.464C46.0911 82.4427 46.0858 82.4213 46.0858 82.4C46.0644 82.3147 46.0538 82.2507 46.0538 82.208V81.68C46.0538 81.4987 46.0271 81.376 45.9738 81.312C45.9204 81.2373 45.7818 81.2 45.5578 81.2H44.6938V80ZM54.1951 87.872C54.1951 87.936 54.1631 87.9787 54.0991 88H52.8831C52.1045 88 51.5391 87.8453 51.1871 87.536C50.8351 87.2267 50.6591 86.6827 50.6591 85.904V81.232H49.8431C49.5765 81.232 49.4431 81.072 49.4431 80.752V80H50.6591V76.432H51.6351C52.1045 76.432 52.4565 76.5493 52.6911 76.784C52.9365 77.0187 53.0591 77.3173 53.0591 77.68V86.192C53.0591 86.5867 53.2831 86.784 53.7311 86.784H54.0671C54.1525 86.784 54.1951 86.8213 54.1951 86.896V87.872ZM54.6911 80V80.752C54.6911 81.072 54.5578 81.232 54.2911 81.232H53.4591V80H54.6911ZM61.4054 88H61.3734C60.3174 88 59.6667 87.8187 59.4214 87.456C59.304 87.2853 59.208 87.12 59.1334 86.96C59.0694 86.8 59.0267 86.5493 59.0054 86.208C58.952 85.5893 58.9254 84.9013 58.9254 84.144C58.9254 83.3867 58.9307 82.8427 58.9414 82.512C58.952 82.1707 58.984 81.8293 59.0374 81.488C59.1014 81.136 59.1814 80.8853 59.2774 80.736C59.3734 80.576 59.5174 80.432 59.7094 80.304C59.9014 80.176 60.1254 80.096 60.3814 80.064C60.6374 80.0213 60.968 80 61.3734 80H61.4054V88ZM63.2614 85.472C63.976 85.472 64.52 85.472 64.8934 85.472C65.2667 85.472 65.4587 85.4773 65.4694 85.488C65.48 85.488 65.496 85.4933 65.5174 85.504C65.5494 85.504 65.5707 85.5093 65.5814 85.52C65.592 85.5307 65.6027 85.5467 65.6134 85.568C65.624 85.5787 65.6294 85.6 65.6294 85.632C65.6507 85.7067 65.6614 85.7653 65.6614 85.808V86.288C65.6614 87.4293 65.08 88 63.9174 88H61.9014V86.8H62.7654C62.9894 86.8 63.128 86.768 63.1814 86.704C63.2347 86.6293 63.2614 86.5013 63.2614 86.32V85.472ZM61.9014 80H63.9174C65.08 80 65.6614 80.5707 65.6614 81.712V82.8C64.9467 82.8 64.4027 82.8 64.0294 82.8C63.656 82.8 63.464 82.8 63.4534 82.8C63.4427 82.7893 63.4214 82.784 63.3894 82.784C63.368 82.7733 63.352 82.7627 63.3414 82.752C63.3307 82.7413 63.32 82.7307 63.3094 82.72C63.2987 82.6987 63.2934 82.6773 63.2934 82.656C63.272 82.5707 63.2614 82.5067 63.2614 82.464V81.68C63.2614 81.4987 63.2347 81.376 63.1814 81.312C63.128 81.2373 62.9894 81.2 62.7654 81.2H61.9014V80ZM71.1598 81.2H70.2958C69.9651 81.2 69.7784 81.2587 69.7358 81.376C69.6718 81.5147 69.6398 81.712 69.6398 81.968V86.032C69.6398 86.0533 69.6398 86.1173 69.6398 86.224C69.6398 86.3307 69.6504 86.4213 69.6718 86.496C69.7144 86.6987 69.9224 86.8 70.2958 86.8H71.1598V88H69.6078C69.2024 88 68.8718 87.984 68.6158 87.952C68.3598 87.9093 68.1358 87.824 67.9438 87.696C67.7518 87.568 67.6078 87.4293 67.5118 87.28C67.4158 87.12 67.3358 86.8693 67.2718 86.528C67.1971 86.048 67.1598 85.376 67.1598 84.512C67.1598 83.648 67.1651 83.0667 67.1758 82.768C67.1864 82.4587 67.2024 82.1333 67.2238 81.792C67.2558 81.4507 67.3038 81.2 67.3678 81.04C67.4424 80.88 67.5331 80.72 67.6398 80.56C67.7571 80.3893 67.9064 80.272 68.0878 80.208C68.4824 80.0693 68.9891 80 69.6078 80H71.1598V81.2ZM74.7598 87.888C74.7598 87.9627 74.7384 88 74.6958 88H73.3838C72.7864 88 72.3438 87.8613 72.0558 87.584C71.7784 87.3067 71.6398 86.8533 71.6398 86.224V80H72.2958C72.9678 80 73.4264 80.16 73.6718 80.48C73.9171 80.7893 74.0398 81.2 74.0398 81.712V86.192C74.0398 86.5227 74.1091 86.7093 74.2478 86.752C74.3224 86.784 74.4238 86.8 74.5518 86.8H74.6318C74.7171 86.8 74.7598 86.8373 74.7598 86.912V87.888ZM77.7338 80H79.6538C79.7178 80 79.7498 80.0373 79.7498 80.112V81.088C79.7498 81.1627 79.7071 81.2 79.6218 81.2H78.9018C78.6458 81.2 78.4964 81.248 78.4538 81.344C78.4111 81.4827 78.3898 81.6373 78.3898 81.808V86.768C78.3898 87.1307 78.2671 87.4293 78.0218 87.664C77.7871 87.888 77.4351 88 76.9658 88H75.9898V81.776C75.9898 81.1467 76.1284 80.6933 76.4058 80.416C76.6938 80.1387 77.1364 80 77.7338 80ZM83.1669 80V82.928C83.1669 83.1093 83.1935 83.2373 83.2469 83.312C83.3002 83.376 83.4389 83.408 83.6629 83.408H84.5589V84.608H82.5109C81.3482 84.608 80.7669 84.0373 80.7669 82.896V81.776C80.7669 81.072 80.9429 80.6027 81.2949 80.368C81.6575 80.1227 82.2815 80 83.1669 80ZM83.1989 85.472V86.32C83.1989 86.5013 83.2255 86.6293 83.2789 86.704C83.3322 86.768 83.4709 86.8 83.6949 86.8H84.5589V88H82.5429C81.3802 88 80.7989 87.4293 80.7989 86.288V85.808C80.7989 85.648 80.8149 85.5573 80.8469 85.536C80.8895 85.5147 80.9162 85.504 80.9269 85.504C80.9375 85.4933 80.9642 85.488 81.0069 85.488C81.0602 85.4773 81.0922 85.472 81.1029 85.472C81.8069 85.472 82.5055 85.472 83.1989 85.472ZM85.0389 83.408H85.6949C86.8575 83.408 87.4389 83.9787 87.4389 85.12V86.224C87.4389 86.928 87.2575 87.4027 86.8949 87.648C86.5429 87.8827 85.9242 88 85.0389 88V83.408ZM83.6469 80H85.6629C86.8255 80 87.4069 80.5707 87.4069 81.712V82.544C86.6922 82.544 86.1482 82.544 85.7749 82.544C85.4015 82.544 85.2095 82.544 85.1989 82.544C85.1882 82.5333 85.1669 82.528 85.1349 82.528C85.1135 82.5173 85.0975 82.5067 85.0869 82.496C85.0762 82.4853 85.0655 82.4747 85.0549 82.464C85.0442 82.4427 85.0389 82.4213 85.0389 82.4C85.0175 82.3147 85.0069 82.2507 85.0069 82.208V81.68C85.0069 81.4987 84.9802 81.376 84.9269 81.312C84.8735 81.2373 84.7349 81.2 84.5109 81.2H83.6469V80ZM96.2691 81.2H95.4051C95.1278 81.2 94.9465 81.2373 94.8611 81.312C94.7865 81.3867 94.7491 81.5093 94.7491 81.68V86.336C94.7491 86.496 94.7865 86.6133 94.8611 86.688C94.9465 86.7627 95.1278 86.8 95.4051 86.8H96.2691V88H94.7171C93.6611 88 93.0105 87.8187 92.7651 87.456C92.6478 87.2853 92.5518 87.12 92.4771 86.96C92.4131 86.8 92.3705 86.5493 92.3491 86.208C92.2958 85.5893 92.2691 84.9013 92.2691 84.144C92.2691 83.3867 92.2745 82.8427 92.2851 82.512C92.2958 82.1707 92.3278 81.8293 92.3811 81.488C92.4451 81.136 92.5251 80.8853 92.6211 80.736C92.7171 80.576 92.8611 80.432 93.0531 80.304C93.2451 80.176 93.4691 80.096 93.7251 80.064C93.9811 80.0213 94.3118 80 94.7171 80H96.2691V81.2ZM96.7491 76.432H97.7251C98.1945 76.432 98.5465 76.5493 98.7811 76.784C99.0265 77.008 99.1491 77.3013 99.1491 77.664V86.768C99.1491 87.1307 99.0265 87.4293 98.7811 87.664C98.5465 87.888 98.1945 88 97.7251 88H96.7491V76.432ZM103.359 88H103.327C102.271 88 101.62 87.8187 101.375 87.456C101.257 87.2853 101.161 87.12 101.087 86.96C101.023 86.8 100.98 86.5493 100.959 86.208C100.905 85.5893 100.879 84.9013 100.879 84.144C100.879 83.3867 100.884 82.8427 100.895 82.512C100.905 82.1707 100.937 81.8293 100.991 81.488C101.055 81.136 101.135 80.8853 101.231 80.736C101.327 80.576 101.471 80.432 101.663 80.304C101.855 80.176 102.079 80.096 102.335 80.064C102.591 80.0213 102.921 80 103.327 80H103.359V88ZM107.615 85.472V86.288C107.615 87.4293 107.033 88 105.871 88H103.855V86.8H104.719C104.943 86.8 105.081 86.768 105.135 86.704C105.188 86.6293 105.215 86.5013 105.215 86.32V85.808C105.215 85.648 105.231 85.5573 105.263 85.536C105.305 85.5147 105.332 85.504 105.343 85.504C105.353 85.4933 105.38 85.488 105.423 85.488C105.476 85.4773 105.513 85.472 105.535 85.472C106.228 85.472 106.921 85.472 107.615 85.472ZM103.855 80H105.711C106.447 80 106.948 80.144 107.215 80.432C107.481 80.72 107.615 81.1467 107.615 81.712V83.12C107.615 84.08 107.092 84.56 106.047 84.56H103.695V83.36H104.559C104.815 83.36 104.985 83.328 105.071 83.264C105.167 83.2 105.215 83.0773 105.215 82.896V81.68C105.215 81.4987 105.188 81.376 105.135 81.312C105.081 81.2373 104.943 81.2 104.719 81.2H103.855V80ZM111.495 80V82.928C111.495 83.1093 111.522 83.2373 111.575 83.312C111.628 83.376 111.767 83.408 111.991 83.408H112.887V84.608H110.839C109.676 84.608 109.095 84.0373 109.095 82.896V81.776C109.095 81.072 109.271 80.6027 109.623 80.368C109.986 80.1227 110.61 80 111.495 80ZM111.527 85.472V86.32C111.527 86.5013 111.554 86.6293 111.607 86.704C111.66 86.768 111.799 86.8 112.023 86.8H112.887V88H110.871C109.708 88 109.127 87.4293 109.127 86.288V85.808C109.127 85.648 109.143 85.5573 109.175 85.536C109.218 85.5147 109.244 85.504 109.255 85.504C109.266 85.4933 109.292 85.488 109.335 85.488C109.388 85.4773 109.42 85.472 109.431 85.472C110.135 85.472 110.834 85.472 111.527 85.472ZM113.367 83.408H114.023C115.186 83.408 115.767 83.9787 115.767 85.12V86.224C115.767 86.928 115.586 87.4027 115.223 87.648C114.871 87.8827 114.252 88 113.367 88V83.408ZM111.975 80H113.991C115.154 80 115.735 80.5707 115.735 81.712V82.544C115.02 82.544 114.476 82.544 114.103 82.544C113.73 82.544 113.538 82.544 113.527 82.544C113.516 82.5333 113.495 82.528 113.463 82.528C113.442 82.5173 113.426 82.5067 113.415 82.496C113.404 82.4853 113.394 82.4747 113.383 82.464C113.372 82.4427 113.367 82.4213 113.367 82.4C113.346 82.3147 113.335 82.2507 113.335 82.208V81.68C113.335 81.4987 113.308 81.376 113.255 81.312C113.202 81.2373 113.063 81.2 112.839 81.2H111.975V80ZM117.412 80.016H118.388C118.858 80.016 119.21 80.1333 119.444 80.368C119.69 80.592 119.812 80.8853 119.812 81.248V88H117.988C117.818 88 117.679 87.9413 117.572 87.824C117.466 87.7067 117.412 87.552 117.412 87.36V80.016ZM117.524 76.608C117.642 76.4907 117.983 76.432 118.548 76.432C119.114 76.432 119.455 76.4907 119.572 76.608C119.69 76.7147 119.748 77.0347 119.748 77.568C119.748 78.1013 119.684 78.4267 119.556 78.544C119.439 78.6613 119.103 78.72 118.548 78.72C117.994 78.72 117.652 78.6613 117.524 78.544C117.407 78.4267 117.348 78.1013 117.348 77.568C117.348 77.0347 117.407 76.7147 117.524 76.608ZM125.535 81.2H124.671C124.393 81.2 124.212 81.2373 124.127 81.312C124.052 81.3867 124.015 81.5093 124.015 81.68V86.336C124.015 86.496 124.052 86.6133 124.127 86.688C124.212 86.7627 124.393 86.8 124.671 86.8H125.535V88H123.983C123.577 88 123.247 87.984 122.991 87.952C122.735 87.9093 122.511 87.824 122.319 87.696C122.127 87.568 121.983 87.4293 121.887 87.28C121.791 87.12 121.711 86.8693 121.647 86.528C121.572 86.048 121.535 85.376 121.535 84.512C121.535 83.648 121.54 83.0667 121.551 82.768C121.561 82.4587 121.577 82.1333 121.599 81.792C121.631 81.4507 121.679 81.2 121.743 81.04C121.817 80.88 121.908 80.72 122.015 80.56C122.132 80.3893 122.281 80.272 122.463 80.208C122.857 80.0693 123.364 80 123.983 80H125.535V81.2ZM124.175 89.024V89.872C124.175 90.0533 124.201 90.176 124.255 90.24C124.308 90.3147 124.447 90.352 124.671 90.352H125.535V91.552H123.519C122.356 91.552 121.775 90.9813 121.775 89.84V89.36C121.775 89.2 121.791 89.1093 121.823 89.088C121.865 89.0667 121.892 89.0507 121.903 89.04C121.913 89.04 121.94 89.0347 121.983 89.024C122.036 89.024 122.073 89.024 122.095 89.024C122.788 89.024 123.481 89.024 124.175 89.024ZM126.015 80H126.991C127.46 80 127.812 80.1173 128.047 80.352C128.292 80.576 128.415 80.8693 128.415 81.232V90.336C128.415 90.6987 128.292 90.992 128.047 91.216C127.812 91.4507 127.46 91.568 126.991 91.568H126.015V80ZM133.056 80H135.296C136.459 80 137.04 80.5707 137.04 81.712V88H135.216C135.045 88 134.907 87.9413 134.8 87.824C134.693 87.7067 134.64 87.552 134.64 87.36V81.68C134.64 81.5093 134.597 81.3867 134.512 81.312C134.437 81.2373 134.261 81.2 133.984 81.2H133.056V80ZM130.256 80H131.232C131.701 80 132.053 80.1173 132.288 80.352C132.533 80.576 132.656 80.8693 132.656 81.232V88H130.832C130.661 88 130.523 87.9413 130.416 87.824C130.309 87.7067 130.256 87.552 130.256 87.36V80ZM141.234 88H141.202C140.146 88 139.495 87.8187 139.25 87.456C139.132 87.2853 139.036 87.12 138.962 86.96C138.898 86.8 138.855 86.5493 138.834 86.208C138.78 85.5893 138.754 84.9013 138.754 84.144C138.754 83.3867 138.759 82.8427 138.77 82.512C138.78 82.1707 138.812 81.8293 138.866 81.488C138.93 81.136 139.01 80.8853 139.106 80.736C139.202 80.576 139.346 80.432 139.538 80.304C139.73 80.176 139.954 80.096 140.21 80.064C140.466 80.0213 140.796 80 141.202 80H141.234V88ZM145.49 85.472V86.288C145.49 87.4293 144.908 88 143.746 88H141.73V86.8H142.594C142.818 86.8 142.956 86.768 143.01 86.704C143.063 86.6293 143.09 86.5013 143.09 86.32V85.808C143.09 85.648 143.106 85.5573 143.138 85.536C143.18 85.5147 143.207 85.504 143.218 85.504C143.228 85.4933 143.255 85.488 143.298 85.488C143.351 85.4773 143.388 85.472 143.41 85.472C144.103 85.472 144.796 85.472 145.49 85.472ZM141.73 80H143.586C144.322 80 144.823 80.144 145.09 80.432C145.356 80.72 145.49 81.1467 145.49 81.712V83.12C145.49 84.08 144.967 84.56 143.922 84.56H141.57V83.36H142.434C142.69 83.36 142.86 83.328 142.946 83.264C143.042 83.2 143.09 83.0773 143.09 82.896V81.68C143.09 81.4987 143.063 81.376 143.01 81.312C142.956 81.2373 142.818 81.2 142.594 81.2H141.73V80ZM148.89 80H150.81C150.874 80 150.906 80.0373 150.906 80.112V81.088C150.906 81.1627 150.863 81.2 150.778 81.2H150.058C149.802 81.2 149.653 81.248 149.61 81.344C149.567 81.4827 149.546 81.6373 149.546 81.808V86.768C149.546 87.1307 149.423 87.4293 149.178 87.664C148.943 87.888 148.591 88 148.122 88H147.146V81.776C147.146 81.1467 147.285 80.6933 147.562 80.416C147.85 80.1387 148.293 80 148.89 80ZM154.323 80V82.928C154.323 83.1093 154.35 83.2373 154.403 83.312C154.456 83.376 154.595 83.408 154.819 83.408H155.715V84.608H153.667C152.504 84.608 151.923 84.0373 151.923 82.896V81.776C151.923 81.072 152.099 80.6027 152.451 80.368C152.814 80.1227 153.438 80 154.323 80ZM154.355 85.472V86.32C154.355 86.5013 154.382 86.6293 154.435 86.704C154.488 86.768 154.627 86.8 154.851 86.8H155.715V88H153.699C152.536 88 151.955 87.4293 151.955 86.288V85.808C151.955 85.648 151.971 85.5573 152.003 85.536C152.046 85.5147 152.072 85.504 152.083 85.504C152.094 85.4933 152.12 85.488 152.163 85.488C152.216 85.4773 152.248 85.472 152.259 85.472C152.963 85.472 153.662 85.472 154.355 85.472ZM156.195 83.408H156.851C158.014 83.408 158.595 83.9787 158.595 85.12V86.224C158.595 86.928 158.414 87.4027 158.051 87.648C157.699 87.8827 157.08 88 156.195 88V83.408ZM154.803 80H156.819C157.982 80 158.563 80.5707 158.563 81.712V82.544C157.848 82.544 157.304 82.544 156.931 82.544C156.558 82.544 156.366 82.544 156.355 82.544C156.344 82.5333 156.323 82.528 156.291 82.528C156.27 82.5173 156.254 82.5067 156.243 82.496C156.232 82.4853 156.222 82.4747 156.211 82.464C156.2 82.4427 156.195 82.4213 156.195 82.4C156.174 82.3147 156.163 82.2507 156.163 82.208V81.68C156.163 81.4987 156.136 81.376 156.083 81.312C156.03 81.2373 155.891 81.2 155.667 81.2H154.803V80Z" fill="black"/>
<path d="M85.75 116.5H110.75C110.75 116.5 114.5 116.5 114.5 111.5C114.5 109 114.5 104 113.25 102.75C112 101.5 103.25 94 99.5 94H92C88.25 94 79.5 102.75 79.5 102.75L74.5 104C74.5 104 70.75 105.25 70.75 107.75V111.5C70.75 111.5 69.5 111.923 69.5 113.946C69.5 116.5 72 116.5 72 116.5H85.75Z" fill="#DD2E44"/>
<path d="M94.5 96.5H92C89.5 96.5 82 104 82 104C82 104 88.2463 103.671 94.5 103.351V96.5Z" fill="#BBDDF5"/>
<path d="M107 100.25C105.75 99 100.75 96.5 98.25 96.5H97V103.224C102.014 102.969 106.477 102.75 107 102.75C108.25 102.75 108.25 101.5 107 100.25Z" fill="#BBDDF5"/>
<path d="M87 115.25C87 116.576 86.4732 117.848 85.5355 118.786C84.5979 119.723 83.3261 120.25 82 120.25C80.6739 120.25 79.4021 119.723 78.4645 118.786C77.5268 117.848 77 116.576 77 115.25C77 113.924 77.5268 112.652 78.4645 111.714C79.4021 110.777 80.6739 110.25 82 110.25C83.3261 110.25 84.5979 110.777 85.5355 111.714C86.4732 112.652 87 113.924 87 115.25Z" fill="#292F33"/>
<path d="M84.5 115.25C84.4999 115.578 84.4352 115.904 84.3094 116.207C84.1837 116.51 83.9994 116.786 83.7672 117.018C83.5349 117.25 83.2592 117.434 82.9558 117.56C82.6524 117.685 82.3272 117.75 81.9988 117.75C81.6704 117.75 81.3452 117.685 81.0419 117.559C80.7385 117.434 80.4629 117.249 80.2308 117.017C79.9986 116.785 79.8145 116.509 79.6889 116.206C79.5633 115.902 79.4987 115.577 79.4988 115.249C79.4989 114.586 79.7626 113.95 80.2316 113.481C80.7007 113.012 81.3368 112.749 82 112.749C82.6632 112.749 83.2992 113.013 83.7681 113.482C84.2369 113.951 84.5002 114.587 84.5 115.25Z" fill="#CCD6DD"/>
<path d="M108.25 115.25C108.25 116.576 107.723 117.848 106.786 118.786C105.848 119.723 104.576 120.25 103.25 120.25C101.924 120.25 100.652 119.723 99.7145 118.786C98.7768 117.848 98.25 116.576 98.25 115.25C98.25 113.924 98.7768 112.652 99.7145 111.714C100.652 110.777 101.924 110.25 103.25 110.25C104.576 110.25 105.848 110.777 106.786 111.714C107.723 112.652 108.25 113.924 108.25 115.25Z" fill="#292F33"/>
<path d="M105.75 115.25C105.75 115.578 105.685 115.904 105.559 116.207C105.434 116.51 105.249 116.786 105.017 117.018C104.785 117.25 104.509 117.434 104.206 117.56C103.902 117.685 103.577 117.75 103.249 117.75C102.92 117.75 102.595 117.685 102.292 117.559C101.989 117.434 101.713 117.249 101.481 117.017C101.249 116.785 101.064 116.509 100.939 116.206C100.813 115.902 100.749 115.577 100.749 115.249C100.749 114.586 101.013 113.95 101.482 113.481C101.951 113.012 102.587 112.749 103.25 112.749C103.913 112.749 104.549 113.013 105.018 113.482C105.487 113.951 105.75 114.587 105.75 115.25Z" fill="#CCD6DD"/>
<defs>
<linearGradient id="paint0_linear_7_60" x1="92" y1="10" x2="92" y2="120.25" gradientUnits="userSpaceOnUse">
<stop stop-color="#B41A1A"/>
<stop offset="1" stop-color="white"/>
</linearGradient>
</defs>
</svg>
